<mxfile host="app.diagrams.net" modified="2024-07-08T16:56:38.640Z" agent="Mozilla/5.0 (Windows NT 10.0; Win64; x64) AppleWebKit/537.36 (KHTML, like Gecko) Chrome/126.0.0.0 Safari/537.36" etag="ylGqSxJjmMoflRO5uCYq" version="24.5.4" type="github">
  <diagram name="Страница — 1" id="RuAP55zXy-hblOWv5w2I">
    <mxGraphModel dx="1434" dy="746" grid="1" gridSize="10" guides="1" tooltips="1" connect="1" arrows="1" fold="1" page="1" pageScale="1" pageWidth="827" pageHeight="1169" math="0" shadow="0">
      <root>
        <mxCell id="0" />
        <mxCell id="1" parent="0" />
        <mxCell id="ir5fmRrBXQO_RhYb7hRQ-1" value="Пользователь" style="shape=umlActor;verticalLabelPosition=bottom;verticalAlign=top;html=1;outlineConnect=0;labelPosition=center;align=center;" vertex="1" parent="1">
          <mxGeometry x="100" y="160" width="60" height="100" as="geometry" />
        </mxCell>
        <mxCell id="ir5fmRrBXQO_RhYb7hRQ-3" value="" style="endArrow=classic;html=1;rounded=0;entryX=0.5;entryY=0;entryDx=0;entryDy=0;" edge="1" parent="1" source="ir5fmRrBXQO_RhYb7hRQ-16" target="ir5fmRrBXQO_RhYb7hRQ-4">
          <mxGeometry width="50" height="50" relative="1" as="geometry">
            <mxPoint x="489.36" y="270" as="sourcePoint" />
            <mxPoint x="379.64" y="330" as="targetPoint" />
          </mxGeometry>
        </mxCell>
        <mxCell id="ir5fmRrBXQO_RhYb7hRQ-4" value="Выбор калькулятора" style="ellipse;whiteSpace=wrap;html=1;" vertex="1" parent="1">
          <mxGeometry x="480" y="210" width="120" height="80" as="geometry" />
        </mxCell>
        <mxCell id="ir5fmRrBXQO_RhYb7hRQ-6" value="Просмотр информации, принципе работы для выбранного калькулятора" style="ellipse;whiteSpace=wrap;html=1;" vertex="1" parent="1">
          <mxGeometry x="460" y="370" width="160" height="95" as="geometry" />
        </mxCell>
        <mxCell id="ir5fmRrBXQO_RhYb7hRQ-7" value="" style="endArrow=classic;html=1;rounded=0;entryX=0.5;entryY=0;entryDx=0;entryDy=0;exitX=0.5;exitY=1;exitDx=0;exitDy=0;" edge="1" parent="1" source="ir5fmRrBXQO_RhYb7hRQ-4" target="ir5fmRrBXQO_RhYb7hRQ-6">
          <mxGeometry width="50" height="50" relative="1" as="geometry">
            <mxPoint x="540" y="300" as="sourcePoint" />
            <mxPoint x="310.36" y="411.4849999999999" as="targetPoint" />
          </mxGeometry>
        </mxCell>
        <mxCell id="ir5fmRrBXQO_RhYb7hRQ-8" value="Расчет значения на основе введенных данных" style="ellipse;whiteSpace=wrap;html=1;" vertex="1" parent="1">
          <mxGeometry x="627.14" y="250" width="170" height="100" as="geometry" />
        </mxCell>
        <mxCell id="ir5fmRrBXQO_RhYb7hRQ-9" value="" style="endArrow=classic;html=1;rounded=0;exitX=1;exitY=0.5;exitDx=0;exitDy=0;entryX=0.5;entryY=0;entryDx=0;entryDy=0;" edge="1" parent="1" source="ir5fmRrBXQO_RhYb7hRQ-4" target="ir5fmRrBXQO_RhYb7hRQ-8">
          <mxGeometry width="50" height="50" relative="1" as="geometry">
            <mxPoint x="489.64" y="480" as="sourcePoint" />
            <mxPoint x="539.64" y="430" as="targetPoint" />
          </mxGeometry>
        </mxCell>
        <mxCell id="ir5fmRrBXQO_RhYb7hRQ-10" value="" style="endArrow=classic;html=1;rounded=0;exitX=0;exitY=1;exitDx=0;exitDy=0;entryX=0.5;entryY=0;entryDx=0;entryDy=0;" edge="1" parent="1" source="ir5fmRrBXQO_RhYb7hRQ-16" target="ir5fmRrBXQO_RhYb7hRQ-11">
          <mxGeometry width="50" height="50" relative="1" as="geometry">
            <mxPoint x="380" y="209.5" as="sourcePoint" />
            <mxPoint x="460" y="209.5" as="targetPoint" />
          </mxGeometry>
        </mxCell>
        <mxCell id="ir5fmRrBXQO_RhYb7hRQ-11" value="Просмотр информации о приложении, калькуляторах, авторе" style="ellipse;whiteSpace=wrap;html=1;" vertex="1" parent="1">
          <mxGeometry x="60" y="350" width="120" height="80" as="geometry" />
        </mxCell>
        <mxCell id="ir5fmRrBXQO_RhYb7hRQ-14" value="" style="endArrow=classic;html=1;rounded=0;exitX=0.5;exitY=0;exitDx=0;exitDy=0;" edge="1" parent="1" source="ir5fmRrBXQO_RhYb7hRQ-16">
          <mxGeometry width="50" height="50" relative="1" as="geometry">
            <mxPoint x="369" y="540" as="sourcePoint" />
            <mxPoint x="320" y="100" as="targetPoint" />
          </mxGeometry>
        </mxCell>
        <mxCell id="ir5fmRrBXQO_RhYb7hRQ-15" value="" style="endArrow=classic;html=1;rounded=0;" edge="1" parent="1" source="ir5fmRrBXQO_RhYb7hRQ-1">
          <mxGeometry width="50" height="50" relative="1" as="geometry">
            <mxPoint x="380" y="510" as="sourcePoint" />
            <mxPoint x="260" y="210" as="targetPoint" />
          </mxGeometry>
        </mxCell>
        <mxCell id="ir5fmRrBXQO_RhYb7hRQ-16" value="авторизация" style="ellipse;whiteSpace=wrap;html=1;" vertex="1" parent="1">
          <mxGeometry x="260" y="170" width="120" height="80" as="geometry" />
        </mxCell>
        <mxCell id="ir5fmRrBXQO_RhYb7hRQ-17" value="сообщение об ошибке" style="ellipse;whiteSpace=wrap;html=1;" vertex="1" parent="1">
          <mxGeometry x="260" y="20" width="120" height="80" as="geometry" />
        </mxCell>
        <mxCell id="ir5fmRrBXQO_RhYb7hRQ-18" value="" style="endArrow=classic;html=1;rounded=0;entryX=0.5;entryY=0;entryDx=0;entryDy=0;" edge="1" parent="1" target="ir5fmRrBXQO_RhYb7hRQ-11">
          <mxGeometry width="50" height="50" relative="1" as="geometry">
            <mxPoint x="130" y="280" as="sourcePoint" />
            <mxPoint x="40" y="300" as="targetPoint" />
          </mxGeometry>
        </mxCell>
      </root>
    </mxGraphModel>
  </diagram>
</mxfile>
